<?xml version="1.0" encoding="utf-8"?>
<!-- Generator: Adobe Illustrator 27.5.0, SVG Export Plug-In . SVG Version: 6.00 Build 0)  -->
<svg version="1.1" xmlns="http://www.w3.org/2000/svg" xmlns:xlink="http://www.w3.org/1999/xlink" x="0px" y="0px"
	 viewBox="0 0 500 500" style="enable-background:new 0 0 500 500;" xml:space="preserve">
<g id="BACKGROUND">
	<rect x="-0.001" style="fill:#CBF0FF;" width="500" height="500"/>
</g>
<g id="OBJECTS">
	<g>
		<rect x="141.741" y="330.361" style="fill:#2C3874;" width="216.527" height="26.104"/>
		<path style="fill:#048AD3;" d="M363.005,340.884h-226.01c-9.339,0-16.91-7.571-16.91-16.91V184.772
			c0-9.339,7.571-16.91,16.91-16.91h226.01c9.339,0,16.91,7.571,16.91,16.91v139.202
			C379.915,333.313,372.344,340.884,363.005,340.884z"/>
		<path style="fill:#FFFFFF;" d="M361.388,333.012H138.612c-4.945,0-8.954-4.009-8.954-8.954V184.687
			c0-4.945,4.009-8.954,8.954-8.954h222.777c4.945,0,8.954,4.009,8.954,8.954v139.371
			C370.343,329.003,366.334,333.012,361.388,333.012z"/>
		<path style="fill:#048AD3;" d="M399.669,348.291v6.22c0,6.53-5.29,11.82-11.82,11.82h-275.7c-6.53,0-11.82-5.29-11.82-11.82v-6.22
			H399.669z"/>
		<path style="opacity:0.53;fill:#2C3874;" d="M270.459,348.291L270.459,348.291c0,3.297-2.673,5.97-5.97,5.97h-28.98
			c-3.297,0-5.97-2.673-5.97-5.97l0,0H270.459z"/>
		<path style="fill:#FEC303;" d="M125.168,357.237c0,2.434-1.973,4.408-4.407,4.408c-2.434,0-4.408-1.973-4.408-4.408
			c0-2.434,1.973-4.407,4.408-4.407C123.195,352.829,125.168,354.803,125.168,357.237z"/>
		<g>
			<path style="fill:#2C3874;" d="M258.23,170.262h-22.366c-0.84,0-1.521,0.681-1.521,1.521l0,0c0,0.84,0.681,1.521,1.521,1.521
				h22.366c0.84,0,1.521-0.681,1.521-1.521l0,0C259.75,170.942,259.07,170.262,258.23,170.262z"/>
			<path style="fill:#2C3874;" d="M265.657,171.782c0-0.95-0.77-1.72-1.72-1.72c-0.95,0-1.72,0.77-1.72,1.72
				c0,0.95,0.77,1.72,1.72,1.72C264.887,173.502,265.657,172.732,265.657,171.782z"/>
		</g>
	</g>
	<g>
		<g>
			<g>
				<path style="fill:#048AD3;" d="M123.149,500h-39.81c-9.06-6.8-15.82-15.77-19.78-26.16c-5.22-13.65-5.59-29.76-0.01-46.59
					C104.299,431,128.819,462.32,123.149,500z"/>
				<path style="opacity:0.53;fill:#2C3874;" d="M111.149,500h-27.81c-9.06-6.8-15.82-15.77-19.78-26.16
					c-5.22-13.65-5.59-29.76-0.01-46.59L111.149,500z"/>
			</g>
			<g>
				<path style="fill:#048AD3;" d="M84.989,500h-39.25c-6.96-5.96-11.86-14.81-13.48-25.84c11.25-4.43,22.21-4.24,31.3-0.32
					c10.19,4.38,18.04,13.43,21.36,25.89C84.939,499.82,84.969,499.91,84.989,500z"/>
				<path style="opacity:0.53;fill:#2C3874;" d="M76.899,500h-31.16c-6.96-5.96-11.86-14.81-13.48-25.84L76.899,500z"/>
			</g>
			<path style="fill:#048AD3;" d="M54.503,462.288c-0.084,0.793-0.215,1.594-0.396,2.412c-11.838,0.107-19.346-9.17-16.771-20.725
				C48.332,443.874,55.599,451.879,54.503,462.288z"/>
		</g>
		<g>
			<g>
				<path style="fill:#048AD3;" d="M436.439,473.84c-3.96,10.39-10.73,19.37-19.79,26.16h-39.8c-5.67-37.68,18.85-69,59.61-72.75
					C442.039,444.08,441.659,460.18,436.439,473.84z"/>
				<path style="opacity:0.53;fill:#2C3874;" d="M436.439,473.84c-3.96,10.39-10.73,19.37-19.79,26.16h-27.79l47.6-72.75
					C442.039,444.08,441.659,460.18,436.439,473.84z"/>
			</g>
			<g>
				<path style="fill:#048AD3;" d="M467.739,474.16c-1.62,11.03-6.52,19.88-13.48,25.84h-39.25c0.02-0.09,0.05-0.18,0.07-0.27
					c3.33-12.46,11.18-21.51,21.36-25.89C445.529,469.92,456.479,469.73,467.739,474.16z"/>
				<path style="opacity:0.53;fill:#2C3874;" d="M467.739,474.16c-1.62,11.03-6.52,19.88-13.48,25.84h-31.15L467.739,474.16z"/>
			</g>
			<path style="fill:#048AD3;" d="M445.497,462.288c0.084,0.793,0.215,1.594,0.396,2.412c11.838,0.107,19.346-9.17,16.771-20.725
				C451.668,443.874,444.401,451.879,445.497,462.288z"/>
		</g>
	</g>
	<g>
		<g>
			<g>
				<path style="fill:#FEC303;" d="M282.747,76.475c0-18.789-15.824-33.883-34.873-32.68c-15.867,1.002-28.941,13.608-30.465,29.433
					c-0.992,10.296,2.793,19.728,9.394,26.351c4.485,4.499,6.799,10.726,6.799,17.078v7.957h32.794v-8.182
					c0-6.261,2.317-12.377,6.747-16.802C279.076,93.707,282.747,85.521,282.747,76.475z"/>
				<circle style="fill:#2C3874;" cx="250" cy="142.617" r="9.414"/>
				<path style="fill:#2C3874;" d="M266.397,117.341h-32.794v19.982c0,3.737,3.029,6.766,6.766,6.766h19.261
					c3.737,0,6.766-3.029,6.766-6.766V117.341z"/>
				<path style="fill:#2C3874;" d="M266.309,114.911h-32.618c-1,0-1.81,0.811-1.81,1.81v1.238c0,1,0.811,1.81,1.81,1.81h32.618
					c1,0,1.81-0.811,1.81-1.81v-1.238C268.119,115.722,267.309,114.911,266.309,114.911z"/>
				<rect x="233.635" y="123.796" style="opacity:0.53;fill:#2C3874;" width="32.762" height="2.684"/>
				<rect x="233.635" y="129.171" style="opacity:0.53;fill:#2C3874;" width="32.762" height="2.684"/>
				<rect x="233.635" y="134.546" style="opacity:0.53;fill:#2C3874;" width="32.762" height="2.684"/>
			</g>
			<g>
				<path style="fill:#2C3874;" d="M258.788,116.996c-0.829,0-1.5-0.671-1.5-1.5V81.269l-6.458,4.163
					c-0.494,0.319-1.128,0.319-1.623,0.002l-6.494-4.17v34.232c0,0.829-0.671,1.5-1.5,1.5s-1.5-0.671-1.5-1.5V78.517
					c0-0.548,0.299-1.053,0.781-1.316c0.481-0.263,1.068-0.242,1.53,0.054l7.993,5.133l7.959-5.131
					c0.462-0.298,1.049-0.32,1.531-0.056c0.482,0.263,0.782,0.768,0.782,1.317v36.979
					C260.288,116.324,259.616,116.996,258.788,116.996z"/>
			</g>
		</g>
		<circle style="fill:#FFFFFF;" cx="266.397" cy="62.24" r="6.121"/>
	</g>
	<path style="fill:#FFFFFF;" d="M366.661,44.761c-0.005,0-0.009,0-0.014,0c0.581-1.986,0.907-4.081,0.907-6.255
		c0-12.298-9.97-22.268-22.268-22.268c-12.298,0-22.267,9.97-22.267,22.268c0,0.553,0.043,1.095,0.082,1.638
		c-0.01-0.005-0.019-0.01-0.03-0.015c-2.369-1.044-4.972-1.618-7.728-1.618c-10.613,0-19.221,8.596-19.221,19.209
		c0,2.826,0.61,5.512,1.712,7.927h27.488h7.529h17.978h2.263h28.473c0.469-1.513,0.727-3.131,0.727-4.796
		C382.293,52.113,375.327,45.007,366.661,44.761z"/>
	<path style="fill:#FFFFFF;" d="M148.607,68.256c0.003,0,0.005,0,0.008,0c-0.329-1.126-0.514-2.313-0.514-3.546
		c0-6.971,5.651-12.622,12.622-12.622c6.971,0,12.622,5.651,12.622,12.622c0,0.313-0.024,0.621-0.047,0.928
		c0.006-0.003,0.011-0.006,0.017-0.008c1.343-0.591,2.818-0.917,4.38-0.917c6.016,0,10.895,4.872,10.895,10.888
		c0,1.602-0.346,3.124-0.971,4.493h-15.581h-4.268h-10.19h-1.283h-16.139c-0.266-0.857-0.412-1.775-0.412-2.719
		C139.747,72.424,143.695,68.396,148.607,68.256z"/>
	<g>
		<path style="fill:#FFFFFF;" d="M197.35,132.252h-6.41v-6.41c0-0.987-0.8-1.788-1.788-1.788c-0.987,0-1.788,0.801-1.788,1.788v6.41
			h-6.41c-0.988,0-1.788,0.8-1.788,1.788s0.801,1.788,1.788,1.788h6.41v6.41c0,0.988,0.8,1.788,1.788,1.788
			c0.988,0,1.788-0.801,1.788-1.788v-6.41h6.41c0.988,0,1.788-0.8,1.788-1.788S198.337,132.252,197.35,132.252z"/>
		<path style="fill:#FFFFFF;" d="M433.678,55.21h-6.41v-6.41c0-0.987-0.801-1.788-1.788-1.788c-0.987,0-1.788,0.801-1.788,1.788
			v6.41h-6.41c-0.988,0-1.788,0.8-1.788,1.788c0,0.987,0.801,1.788,1.788,1.788h6.41v6.41c0,0.988,0.801,1.788,1.788,1.788
			c0.988,0,1.788-0.8,1.788-1.788v-6.41h6.41c0.988,0,1.788-0.801,1.788-1.788C435.466,56.01,434.665,55.21,433.678,55.21z"/>
		<path style="fill:#FFFFFF;" d="M103.436,55.21h-6.41v-6.41c0-0.987-0.801-1.788-1.788-1.788c-0.987,0-1.788,0.801-1.788,1.788
			v6.41h-6.41c-0.988,0-1.788,0.8-1.788,1.788c0,0.987,0.801,1.788,1.788,1.788h6.41v6.41c0,0.988,0.801,1.788,1.788,1.788
			c0.988,0,1.788-0.8,1.788-1.788v-6.41h6.41c0.988,0,1.788-0.801,1.788-1.788C105.224,56.01,104.423,55.21,103.436,55.21z"/>
		<path style="fill:#FFFFFF;" d="M49.73,340.116h-6.41v-6.41c0-0.988-0.8-1.788-1.788-1.788c-0.987,0-1.788,0.801-1.788,1.788v6.41
			h-6.41c-0.988,0-1.788,0.8-1.788,1.788c0,0.987,0.8,1.788,1.788,1.788h6.41v6.41c0,0.987,0.8,1.788,1.788,1.788
			c0.988,0,1.788-0.801,1.788-1.788v-6.41h6.41c0.988,0,1.788-0.801,1.788-1.788C51.518,340.916,50.718,340.116,49.73,340.116z"/>
		<path style="fill:#FFFFFF;" d="M464.879,331.917h-6.41v-6.41c0-0.987-0.801-1.788-1.788-1.788c-0.987,0-1.788,0.801-1.788,1.788
			v6.41h-6.41c-0.988,0-1.788,0.801-1.788,1.788c0,0.988,0.801,1.788,1.788,1.788h6.41v6.41c0,0.987,0.801,1.788,1.788,1.788
			c0.987,0,1.788-0.801,1.788-1.788v-6.41h6.41c0.988,0,1.788-0.801,1.788-1.788C466.667,332.717,465.866,331.917,464.879,331.917z"
			/>
	</g>
	<g>
		<rect x="100.318" y="381.109" style="fill:#2C3874;" width="299.363" height="118.891"/>
		<path style="opacity:0.53;fill:#2C3874;" d="M303.947,474.16H196.053c-7.108,0-12.871-5.762-12.871-12.871v-25.698
			c0-7.108,5.762-12.871,12.871-12.871h107.893c7.108,0,12.871,5.762,12.871,12.871v25.698
			C316.817,468.398,311.055,474.16,303.947,474.16z"/>
		<rect x="100.318" y="381.109" style="opacity:0.53;fill:#2C3874;" width="299.363" height="26.815"/>
		<path style="fill:#2C3874;" d="M423.243,366.331H76.757c-4.171,0-7.552,3.381-7.552,7.552v8.643c0,4.171,3.381,7.552,7.552,7.552
			h346.486c4.171,0,7.552-3.381,7.552-7.552v-8.643C430.795,369.713,427.414,366.331,423.243,366.331z"/>
	</g>
	<g>
		<g>
			<path style="fill:#CBF0FF;" d="M293.984,268.62c0,14.819-7.335,27.923-18.574,35.893c-1.044,0.746-2.126,1.442-3.233,2.089
				c-6.502,3.804-14.086,5.992-22.18,5.992c-8.094,0-15.665-2.188-22.167-5.992c-1.119-0.647-2.201-1.343-3.245-2.089
				c-11.227-7.969-18.562-21.073-18.562-35.893c0-24.293,19.681-43.986,43.974-43.986
				C274.291,224.633,293.984,244.326,293.984,268.62z"/>
			<path style="fill:#048AD3;" d="M285.379,268.618c0,11.92-5.9,22.46-14.94,28.87c-0.84,0.6-1.71,1.16-2.6,1.68
				c-5.23,3.06-11.33,4.82-17.84,4.82c-6.51,0-12.6-1.76-17.83-4.82c-0.9-0.52-1.77-1.08-2.61-1.68
				c-9.03-6.41-14.93-16.95-14.93-28.87c0-19.54,15.83-35.38,35.37-35.38C269.539,233.238,285.379,249.078,285.379,268.618z"/>
			<g>
				
					<ellipse transform="matrix(0.9871 -0.1602 0.1602 0.9871 -38.5212 43.4111)" style="fill:#2C3874;" cx="250" cy="260.636" rx="19.005" ry="19.004"/>
				<path style="fill:#FFFFFF;" d="M250,282.89L250,282.89c-6.139,0-11.117-4.977-11.117-11.117v-7.625
					c6.139,0,11.117-4.977,11.117-11.117l0,0c0,6.139,4.977,11.117,11.116,11.117v7.625C261.116,277.913,256.139,282.89,250,282.89z
					"/>
				<path style="fill:#FFFFFF;" d="M242.356,267.458c0-1.855-1.504-3.359-3.359-3.359s-3.359,1.504-3.359,3.359
					c0,1.855,1.504,3.359,3.359,3.359S242.356,269.313,242.356,267.458z"/>
				<path style="fill:#FFFFFF;" d="M264.362,267.458c0-1.855-1.504-3.359-3.359-3.359c-1.855,0-3.359,1.504-3.359,3.359
					c0,1.855,1.504,3.359,3.359,3.359C262.858,270.817,264.362,269.313,264.362,267.458z"/>
				<rect x="246.406" y="279.297" style="fill:#FFFFFF;" width="7.188" height="7.188"/>
				<path style="fill:#FFFFFF;" d="M267.839,294.128v5.04c-5.23,3.06-11.33,4.82-17.84,4.82c-6.51,0-12.6-1.76-17.83-4.82v-5.04
					c0-4.67,3.78-8.46,8.45-8.46h18.76C264.049,285.668,267.839,289.458,267.839,294.128z"/>
			</g>
		</g>
		<path style="fill:#FFFFFF;" d="M254.662,284.033h-9.315c-1.021,0-1.848,0.828-1.848,1.849l0,0c0,1.021,0.828,1.848,1.848,1.848
			h9.315c1.021,0,1.848-0.828,1.848-1.848l0,0C256.51,284.861,255.683,284.033,254.662,284.033z"/>
		<polygon style="fill:#2C3874;" points="253.169,285.488 251.059,287.608 250.009,288.658 246.839,285.488 		"/>
		<polygon style="fill:#2C3874;" points="252.029,301.548 250.009,303.578 247.979,301.548 248.959,287.608 249.099,285.488 
			250.909,285.488 251.059,287.608 		"/>
	</g>
	<path style="fill:#2C3874;" d="M148.077,323.176L148.077,323.176c-6.218,0-11.259-5.041-11.259-11.258l0,0
		c0-6.218,5.041-11.259,11.258-11.259h0c6.218,0,11.258,5.041,11.258,11.259l0,0C159.336,318.135,154.295,323.176,148.077,323.176z"
		/>
	<path style="fill:#2C3874;" d="M98.725,296.614h-59.04c-5.722,0-10.36-4.638-10.36-10.36v-59.04c0-5.722,4.638-10.36,10.36-10.36
		h59.04c5.722,0,10.36,4.638,10.36,10.36v59.04C109.085,291.975,104.446,296.614,98.725,296.614z"/>
	
		<rect x="118.087" y="267.45" transform="matrix(0.4325 -0.9016 0.9016 0.4325 -200.982 277.6786)" style="fill:#2C3874;" width="4.001" height="62.086"/>
	<g>
		<path style="fill:#2C3874;" d="M352.962,323.176L352.962,323.176c6.218,0,11.259-5.041,11.259-11.258l0,0
			c0-6.218-5.041-11.259-11.259-11.259h0c-6.218,0-11.259,5.041-11.259,11.259l0,0C341.704,318.135,346.745,323.176,352.962,323.176
			z"/>
		<path style="fill:#2C3874;" d="M402.315,296.614h59.04c5.722,0,10.36-4.638,10.36-10.36v-59.04c0-5.722-4.638-10.36-10.36-10.36
			h-59.04c-5.722,0-10.36,4.638-10.36,10.36v59.04C391.955,291.975,396.593,296.614,402.315,296.614z"/>
		
			<rect x="349.909" y="296.492" transform="matrix(0.9017 -0.4323 0.4323 0.9017 -91.6038 194.026)" style="fill:#2C3874;" width="62.086" height="4.001"/>
	</g>
	<g>
		<g>
			<path style="fill:#92BFF8;" d="M186.936,239.452H141.69c-2.69,0-4.871-2.181-4.871-4.871v-45.247c0-2.69,2.181-4.871,4.871-4.871
				h45.247c2.69,0,4.871,2.181,4.871,4.871v45.247C191.807,237.271,189.627,239.452,186.936,239.452z"/>
		</g>
		<g>
			<path style="fill:#92BFF8;" d="M312.708,239.452h45.247c2.69,0,4.871-2.181,4.871-4.871v-45.247c0-2.69-2.181-4.871-4.871-4.871
				h-45.247c-2.69,0-4.871,2.181-4.871,4.871v45.247C307.837,237.271,310.018,239.452,312.708,239.452z"/>
		</g>
		<path style="fill:#92BFF8;" d="M187.807,257.133h-47.89c-1.933,0-3.5-1.567-3.5-3.5s1.567-3.5,3.5-3.5h47.89
			c1.933,0,3.5,1.567,3.5,3.5S189.74,257.133,187.807,257.133z"/>
		<path style="fill:#92BFF8;" d="M187.807,271.313h-47.89c-1.933,0-3.5-1.567-3.5-3.5s1.567-3.5,3.5-3.5h47.89
			c1.933,0,3.5,1.567,3.5,3.5S189.74,271.313,187.807,271.313z"/>
		<path style="fill:#92BFF8;" d="M162.561,285.492h-22.643c-1.933,0-3.5-1.567-3.5-3.5c0-1.933,1.567-3.5,3.5-3.5h22.643
			c1.933,0,3.5,1.567,3.5,3.5C166.061,283.925,164.494,285.492,162.561,285.492z"/>
		<path style="fill:#92BFF8;" d="M358.621,257.133h-47.89c-1.933,0-3.5-1.567-3.5-3.5s1.567-3.5,3.5-3.5h47.89
			c1.933,0,3.5,1.567,3.5,3.5S360.554,257.133,358.621,257.133z"/>
		<path style="fill:#92BFF8;" d="M358.621,271.313h-47.89c-1.933,0-3.5-1.567-3.5-3.5s1.567-3.5,3.5-3.5h47.89
			c1.933,0,3.5,1.567,3.5,3.5S360.554,271.313,358.621,271.313z"/>
		<path style="fill:#92BFF8;" d="M333.374,285.492h-22.643c-1.933,0-3.5-1.567-3.5-3.5c0-1.933,1.567-3.5,3.5-3.5h22.643
			c1.933,0,3.5,1.567,3.5,3.5C336.874,283.925,335.307,285.492,333.374,285.492z"/>
		<g>
			<path style="fill:#92BFF8;" d="M279.28,185.233h-58.562c-3.368,0-6.099,2.731-6.099,6.099l0,0c0,3.368,2.731,6.099,6.099,6.099
				h58.562c3.368,0,6.099-2.731,6.099-6.099l0,0C285.379,187.964,282.648,185.233,279.28,185.233z"/>
			<path style="fill:#2C3874;" d="M222.925,191.332c0-0.851-0.69-1.541-1.541-1.541c-0.851,0-1.541,0.69-1.541,1.541
				c0,0.851,0.69,1.541,1.541,1.541C222.235,192.873,222.925,192.183,222.925,191.332z"/>
			<path style="fill:#2C3874;" d="M229.777,191.332c0-0.851-0.69-1.541-1.541-1.541s-1.541,0.69-1.541,1.541
				c0,0.851,0.69,1.541,1.541,1.541S229.777,192.183,229.777,191.332z"/>
			<path style="fill:#2C3874;" d="M236.63,191.332c0-0.851-0.69-1.541-1.541-1.541s-1.541,0.69-1.541,1.541
				c0,0.851,0.69,1.541,1.541,1.541S236.63,192.183,236.63,191.332z"/>
		</g>
		<g>
			<path style="fill:#92BFF8;" d="M279.28,202.858h-58.562c-3.368,0-6.099,2.731-6.099,6.099l0,0c0,3.368,2.731,6.099,6.099,6.099
				h58.562c3.368,0,6.099-2.731,6.099-6.099l0,0C285.379,205.589,282.648,202.858,279.28,202.858z"/>
			<path style="fill:#2C3874;" d="M222.925,208.958c0-0.851-0.69-1.541-1.541-1.541c-0.851,0-1.541,0.69-1.541,1.541
				s0.69,1.541,1.541,1.541C222.235,210.498,222.925,209.809,222.925,208.958z"/>
			<path style="fill:#2C3874;" d="M229.777,208.958c0-0.851-0.69-1.541-1.541-1.541s-1.541,0.69-1.541,1.541s0.69,1.541,1.541,1.541
				S229.777,209.809,229.777,208.958z"/>
			<path style="fill:#2C3874;" d="M236.63,208.958c0-0.851-0.69-1.541-1.541-1.541s-1.541,0.69-1.541,1.541s0.69,1.541,1.541,1.541
				S236.63,209.809,236.63,208.958z"/>
		</g>
		<path style="fill:#92BFF8;" d="M175.637,308.583h-8.054c-1.806,0-3.27,1.464-3.27,3.27v8.054c0,1.806,1.464,3.269,3.27,3.269
			h8.054c1.806,0,3.27-1.464,3.27-3.269v-8.054C178.906,310.047,177.442,308.583,175.637,308.583z"/>
		<path style="fill:#92BFF8;" d="M193.387,308.583h-8.054c-1.806,0-3.269,1.464-3.269,3.27v8.054c0,1.806,1.464,3.269,3.269,3.269
			h8.054c1.806,0,3.27-1.464,3.27-3.269v-8.054C196.657,310.047,195.193,308.583,193.387,308.583z"/>
		<path style="fill:#92BFF8;" d="M211.139,308.583h-8.054c-1.806,0-3.269,1.464-3.269,3.27v8.054c0,1.806,1.464,3.269,3.269,3.269
			h8.054c1.806,0,3.27-1.464,3.27-3.269v-8.054C214.408,310.047,212.944,308.583,211.139,308.583z"/>
		<path style="fill:#92BFF8;" d="M298.314,308.583h-8.054c-1.806,0-3.269,1.464-3.269,3.27v8.054c0,1.806,1.464,3.269,3.269,3.269
			h8.054c1.806,0,3.27-1.464,3.27-3.269v-8.054C301.584,310.047,300.12,308.583,298.314,308.583z"/>
		<path style="fill:#92BFF8;" d="M316.065,308.583h-8.054c-1.806,0-3.269,1.464-3.269,3.27v8.054c0,1.806,1.464,3.269,3.269,3.269
			h8.054c1.806,0,3.27-1.464,3.27-3.269v-8.054C319.335,310.047,317.871,308.583,316.065,308.583z"/>
		<path style="fill:#92BFF8;" d="M333.816,308.583h-8.054c-1.806,0-3.27,1.464-3.27,3.27v8.054c0,1.806,1.464,3.269,3.27,3.269
			h8.054c1.806,0,3.269-1.464,3.269-3.269v-8.054C337.086,310.047,335.622,308.583,333.816,308.583z"/>
	</g>
	<g>
		<path style="fill:#2C3874;" d="M142.656,198.754H56.275c-5.722,0-10.36-4.638-10.36-10.36v-86.381
			c0-5.722,4.638-10.36,10.36-10.36h86.381c5.722,0,10.36,4.638,10.36,10.36v86.381
			C153.016,194.116,148.378,198.754,142.656,198.754z"/>
		<path style="fill:#2C3874;" d="M171.924,230.828L171.924,230.828c-6.218,0-11.258-5.041-11.258-11.258l0,0
			c0-6.218,5.041-11.259,11.258-11.259l0,0c6.218,0,11.259,5.041,11.259,11.259l0,0
			C183.183,225.787,178.142,230.828,171.924,230.828z"/>
		
			<rect x="153.232" y="173.855" transform="matrix(0.7118 -0.7024 0.7024 0.7118 -95.9171 166.7371)" style="fill:#2C3874;" width="4" height="52.801"/>
	</g>
	<g>
		<path style="fill:#2C3874;" d="M443.725,198.754h-86.381c-5.722,0-10.36-4.638-10.36-10.36v-86.381
			c0-5.722,4.638-10.36,10.36-10.36h86.381c5.722,0,10.36,4.638,10.36,10.36v86.381
			C454.085,194.116,449.446,198.754,443.725,198.754z"/>
		<path style="fill:#2C3874;" d="M327.72,230.828L327.72,230.828c6.218,0,11.259-5.041,11.259-11.258l0,0
			c0-6.218-5.041-11.259-11.258-11.259h0c-6.218,0-11.259,5.041-11.259,11.259l0,0C316.462,225.787,321.502,230.828,327.72,230.828z
			"/>
		
			<rect x="319.388" y="198.516" transform="matrix(0.679 -0.7342 0.7342 0.679 -36.35 317.902)" style="fill:#2C3874;" width="51.899" height="4"/>
	</g>
	<g>
		<path style="fill:#FE6C03;" d="M79.657,235.713c-0.663-1.896,1-2.198,0.488-3.66c-0.305-0.871-1.256-1.329-2.127-1.025
			l-5.874,2.055c-1.07,0.374-1.639,1.556-1.265,2.627l2.055,5.874c0.305,0.871-0.154,1.822-1.025,2.127
			c-1.469,0.514-1.753-1.155-3.659-0.488c-1.294,0.453-1.976,1.867-1.523,3.161c0.453,1.295,1.867,1.976,3.161,1.523
			c1.896-0.663,1.095-2.151,2.557-2.663c0.871-0.305,1.822,0.154,2.127,1.025l2.054,5.874c0.374,1.07,1.556,1.639,2.627,1.265
			l5.874-2.055c0.871-0.305,1.329-1.256,1.024-2.127c-0.514-1.469-1.996-0.651-2.663-2.558c-0.453-1.294,0.228-2.708,1.523-3.161
			c1.295-0.453,2.708,0.228,3.161,1.523c0.663,1.896-1,2.198-0.488,3.66c0.305,0.871,1.256,1.329,2.126,1.024l5.874-2.055
			c1.07-0.374,1.64-1.556,1.265-2.627l-2.055-5.874c-0.305-0.871,0.154-1.822,1.024-2.127c1.469-0.514,1.754,1.155,3.66,0.488
			c1.295-0.453,1.976-1.867,1.523-3.161c-0.453-1.295-1.867-1.976-3.161-1.523c-1.896,0.663-1.096,2.152-2.558,2.663
			c-0.871,0.305-1.822-0.154-2.127-1.025l-2.054-5.874c-0.374-1.07-1.556-1.64-2.627-1.265l-5.874,2.055
			c-0.871,0.305-1.329,1.256-1.025,2.127c0.514,1.469,1.996,0.65,2.663,2.558c0.453,1.294-0.228,2.708-1.523,3.161
			C81.524,237.689,80.11,237.008,79.657,235.713z"/>
		<path style="fill:#FE6C03;" d="M42.888,252.48c-1.992-0.253-1.521-1.875-3.057-2.07c-0.915-0.116-1.75,0.531-1.866,1.446
			l-0.783,6.174c-0.143,1.125,0.661,2.162,1.786,2.304l6.173,0.783c0.915,0.116,1.562,0.951,1.446,1.866
			c-0.196,1.544-1.816,1.053-2.07,3.057c-0.173,1.361,0.789,2.601,2.149,2.774c1.361,0.172,2.601-0.789,2.774-2.149
			c0.253-1.992-1.437-1.94-1.242-3.477c0.116-0.915,0.951-1.562,1.866-1.446l6.173,0.783c1.125,0.143,2.162-0.661,2.304-1.786
			l0.783-6.174c0.116-0.915-0.531-1.75-1.446-1.866c-1.544-0.196-1.473,1.496-3.477,1.242c-1.361-0.173-2.322-1.413-2.149-2.774
			c0.173-1.361,1.413-2.322,2.774-2.149c1.993,0.253,1.521,1.875,3.057,2.07c0.915,0.116,1.75-0.531,1.866-1.446l0.783-6.174
			c0.143-1.125-0.661-2.162-1.786-2.304l-6.173-0.783c-0.915-0.116-1.562-0.951-1.446-1.866c0.196-1.544,1.816-1.054,2.07-3.057
			c0.173-1.361-0.789-2.601-2.149-2.774s-2.601,0.789-2.774,2.149c-0.253,1.992,1.437,1.941,1.242,3.477
			c-0.116,0.915-0.951,1.562-1.866,1.446l-6.173-0.783c-1.125-0.143-2.162,0.661-2.305,1.786l-0.783,6.174
			c-0.116,0.915,0.531,1.75,1.446,1.866c1.544,0.196,1.473-1.496,3.477-1.242c1.361,0.173,2.322,1.413,2.149,2.774
			C45.489,251.691,44.249,252.652,42.888,252.48z"/>
		<path style="fill:#FEC303;" d="M64.215,267.977c1.809,0.872,2.296-0.747,3.691-0.074c0.831,0.4,1.18,1.397,0.779,2.228
			l-2.701,5.606c-0.492,1.021-0.059,2.26,0.963,2.752l5.606,2.701c0.831,0.4,1.828,0.052,2.228-0.779
			c0.675-1.402-0.951-1.872-0.074-3.691c0.595-1.236,2.076-1.754,3.312-1.159c1.236,0.595,1.754,2.077,1.159,3.312
			c-0.872,1.809-2.261,0.847-2.933,2.242c-0.4,0.831-0.052,1.828,0.779,2.228l5.606,2.701c1.021,0.492,2.26,0.059,2.752-0.962
			l2.701-5.606c0.4-0.831,1.397-1.18,2.228-0.779c1.402,0.675,0.423,2.057,2.243,2.933c1.236,0.595,2.717,0.077,3.312-1.159
			c0.595-1.235,0.077-2.717-1.159-3.312c-1.81-0.872-2.296,0.747-3.691,0.074c-0.831-0.4-1.18-1.397-0.779-2.228l2.701-5.606
			c0.492-1.021,0.059-2.26-0.962-2.752l-5.607-2.701c-0.831-0.4-1.828-0.052-2.228,0.779c-0.675,1.402,0.951,1.872,0.075,3.691
			c-0.595,1.236-2.077,1.754-3.312,1.159c-1.236-0.595-1.754-2.077-1.159-3.312c0.872-1.809,2.261-0.847,2.933-2.243
			c0.4-0.831,0.052-1.827-0.779-2.228l-5.606-2.701c-1.021-0.492-2.26-0.059-2.752,0.963l-2.701,5.606
			c-0.4,0.831-1.397,1.18-2.228,0.779c-1.402-0.675-0.423-2.056-2.243-2.933c-1.235-0.595-2.717-0.077-3.312,1.158
			C62.461,265.9,62.979,267.382,64.215,267.977z"/>
	</g>
	<g>
		<path style="fill:#FE6C03;" d="M460.98,275.05l1.371-0.556c-0.186-0.936-0.146-0.732-0.332-1.668l-1.48,0.011
			c-0.297-0.718-0.317-0.764-0.614-1.482l1.054-1.039c-0.53-0.794-0.415-0.621-0.945-1.414l-1.363,0.576
			c-0.55-0.55-0.585-0.585-1.135-1.135l0.576-1.363c-0.793-0.53-0.62-0.415-1.414-0.945l-1.039,1.054
			c-0.718-0.298-0.764-0.317-1.482-0.614l0.011-1.48c-0.936-0.186-0.732-0.146-1.668-0.332l-0.557,1.371c-0.777,0-0.827,0-1.604,0
			l-0.556-1.371c-0.936,0.186-0.732,0.146-1.668,0.332l0.011,1.48c-0.718,0.297-0.764,0.316-1.482,0.614l-1.039-1.054
			c-0.793,0.53-0.621,0.415-1.414,0.945l0.576,1.363c-0.55,0.55-0.585,0.585-1.134,1.135l-1.363-0.576
			c-0.53,0.793-0.415,0.62-0.945,1.414l1.054,1.039c-0.297,0.718-0.317,0.764-0.614,1.482l-1.48-0.011
			c-0.186,0.936-0.146,0.732-0.332,1.668l1.371,0.556c0,0.777,0,0.827,0,1.604l-1.371,0.556c0.186,0.936,0.146,0.732,0.332,1.668
			l1.48-0.011c0.297,0.718,0.317,0.764,0.614,1.482l-1.054,1.039c0.53,0.794,0.415,0.621,0.945,1.414l1.363-0.576
			c0.55,0.55,0.585,0.585,1.134,1.135l-0.576,1.363c0.794,0.53,0.621,0.415,1.414,0.945l1.039-1.054
			c0.718,0.297,0.764,0.316,1.482,0.614l-0.011,1.48c0.936,0.186,0.732,0.146,1.668,0.332l0.556-1.371c0.777,0,0.827,0,1.604,0
			l0.557,1.371c0.936-0.186,0.732-0.146,1.668-0.332l-0.011-1.48c0.718-0.297,0.764-0.316,1.482-0.614l1.039,1.054
			c0.794-0.53,0.621-0.415,1.414-0.945l-0.576-1.363c0.55-0.55,0.585-0.585,1.135-1.135l1.363,0.576
			c0.53-0.794,0.415-0.621,0.945-1.414l-1.054-1.039c0.297-0.718,0.317-0.764,0.614-1.482l1.48,0.011
			c0.186-0.936,0.146-0.732,0.332-1.668l-1.371-0.556C460.98,275.877,460.98,275.828,460.98,275.05z M451.162,280.342
			c-2.48,0-4.49-2.01-4.49-4.49c0-2.48,2.01-4.49,4.49-4.49s4.49,2.01,4.49,4.49C455.652,278.332,453.642,280.342,451.162,280.342z"
			/>
		<g>
			<path style="fill:#FEC303;" d="M445.096,246.168l2.857-1.16c-0.388-1.951-0.303-1.525-0.691-3.476l-3.084,0.022
				c-0.62-1.497-0.66-1.592-1.28-3.089l2.196-2.165c-1.105-1.654-0.864-1.293-1.969-2.947l-2.841,1.201
				c-1.146-1.146-1.219-1.219-2.364-2.364l1.201-2.84c-1.654-1.105-1.293-0.864-2.947-1.969l-2.165,2.196
				c-1.497-0.62-1.592-0.66-3.089-1.28l0.022-3.084c-1.951-0.388-1.525-0.303-3.476-0.691l-1.16,2.858c-1.62,0-1.724,0-3.344,0
				l-1.159-2.858c-1.951,0.388-1.526,0.303-3.476,0.691l0.022,3.084c-1.497,0.62-1.592,0.66-3.089,1.28l-2.165-2.196
				c-1.654,1.105-1.293,0.864-2.947,1.969l1.201,2.84c-1.145,1.146-1.219,1.219-2.364,2.364l-2.841-1.201
				c-1.105,1.654-0.864,1.293-1.969,2.947l2.196,2.165c-0.62,1.497-0.66,1.593-1.28,3.089l-3.084-0.022
				c-0.388,1.951-0.304,1.525-0.691,3.476l2.858,1.16c0,1.62,0,1.724,0,3.344l-2.858,1.16c0.388,1.951,0.303,1.525,0.691,3.476
				l3.084-0.022c0.62,1.497,0.66,1.592,1.28,3.089l-2.196,2.165c1.105,1.654,0.864,1.293,1.969,2.947l2.841-1.201
				c1.145,1.146,1.219,1.219,2.364,2.364l-1.201,2.841c1.654,1.105,1.293,0.864,2.947,1.969l2.165-2.196
				c1.497,0.62,1.592,0.66,3.089,1.28l-0.022,3.084c1.951,0.388,1.525,0.303,3.476,0.691l1.159-2.858c1.62,0,1.724,0,3.344,0
				l1.16,2.858c1.951-0.388,1.525-0.303,3.476-0.691l-0.022-3.084c1.497-0.62,1.592-0.66,3.089-1.28l2.165,2.196
				c1.654-1.105,1.293-0.864,2.947-1.969l-1.201-2.841c1.146-1.146,1.219-1.219,2.364-2.364l2.841,1.201
				c1.105-1.654,0.864-1.293,1.969-2.947l-2.196-2.165c0.62-1.497,0.66-1.592,1.28-3.089l3.084,0.022
				c0.388-1.951,0.303-1.525,0.691-3.476l-2.857-1.16C445.096,247.891,445.096,247.788,445.096,246.168z M424.636,262.326
				c-8,0-14.486-6.486-14.486-14.486c0-8,6.486-14.486,14.486-14.486c8,0,14.486,6.485,14.486,14.486
				C439.122,255.84,432.636,262.326,424.636,262.326z"/>
			<path style="fill:#FE6C03;" d="M424.636,256.152c-4.591,0-8.312-3.721-8.312-8.312s3.721-8.312,8.312-8.312
				c4.59,0,8.312,3.721,8.312,8.312S429.226,256.152,424.636,256.152z"/>
		</g>
	</g>
	<g>
		<rect x="67.195" y="134.175" style="fill:#FE6C03;" width="64.542" height="43.406"/>
		<polygon style="fill:#FEC303;" points="67.195,177.58 99.468,148.627 131.737,177.58 		"/>
		<polygon style="fill:#FEC303;" points="131.74,134.177 119.81,142.204 99.468,155.878 79.117,142.194 67.197,134.177 		"/>
		<polygon style="fill:#FEC303;" points="67.195,134.175 99.466,113.103 131.737,134.175 		"/>
		<polygon style="fill:#FFFFFF;" points="119.81,111.677 119.81,142.204 99.468,155.878 79.117,142.194 79.117,111.677 		"/>
		<path style="fill:#92BFF8;" d="M112.407,117.464H86.53c-0.628,0-1.137,0.509-1.137,1.137l0,0c0,0.628,0.509,1.137,1.137,1.137
			h25.876c0.628,0,1.137-0.509,1.137-1.137l0,0C113.543,117.973,113.034,117.464,112.407,117.464z"/>
		<path style="fill:#92BFF8;" d="M112.407,123.34H86.53c-0.628,0-1.137,0.509-1.137,1.137l0,0c0,0.628,0.509,1.137,1.137,1.137
			h25.876c0.628,0,1.137-0.509,1.137-1.137l0,0C113.543,123.849,113.034,123.34,112.407,123.34z"/>
		<path style="fill:#92BFF8;" d="M112.407,129.217H86.53c-0.628,0-1.137,0.509-1.137,1.137l0,0c0,0.628,0.509,1.137,1.137,1.137
			h25.876c0.628,0,1.137-0.509,1.137-1.137l0,0C113.543,129.726,113.034,129.217,112.407,129.217z"/>
		<path style="fill:#92BFF8;" d="M112.407,135.094H86.53c-0.628,0-1.137,0.509-1.137,1.137l0,0c0,0.628,0.509,1.137,1.137,1.137
			h25.876c0.628,0,1.137-0.509,1.137-1.137l0,0C113.543,135.603,113.034,135.094,112.407,135.094z"/>
	</g>
	<g>
		<g>
			<rect x="359.677" y="158.202" style="fill:#FEC303;" width="10.444" height="26.262"/>
			<rect x="377.471" y="169.812" style="fill:#FEC303;" width="10.444" height="14.651"/>
			<rect x="395.265" y="138.625" style="fill:#FE6C03;" width="10.444" height="45.838"/>
			<rect x="413.059" y="130.738" style="fill:#FEC303;" width="10.444" height="53.725"/>
			<rect x="430.853" y="118.049" style="fill:#FEC303;" width="10.444" height="66.414"/>
		</g>
		<g>
			
				<rect x="375.245" y="117.328" transform="matrix(0.9316 -0.3635 0.3635 0.9316 -16.1454 153.0531)" style="fill:#FFFFFF;" width="46.648" height="4.19"/>
			<polygon style="fill:#FFFFFF;" points="424.354,109.364 416.088,105.738 420.728,117.63 			"/>
		</g>
	</g>
</g>
<g id="TEXTS">
	
		<text transform="matrix(1 0 0 1 200.0371 463.625)" style="fill:#FFFFFF; font-family:'Roboto-Black'; font-size:42.2508px; letter-spacing:3;">CRM</text>
</g>
</svg>
